<svg width="196" height="118" viewBox="0 0 196 118" fill="none" xmlns="http://www.w3.org/2000/svg">
<path d="M70.5765 66.0265L69.5605 67.0137C68.4664 67.0878 67.4504 66.6291 66.4117 66.2754C65.5085 65.972 64.6298 65.6 63.7833 65.1627C63.1087 64.8131 62.3272 64.6732 61.7431 64.1344C61.4799 63.8876 61.1673 63.6922 60.8032 63.4166C60.9883 62.703 61.1179 61.977 61.3667 61.288C61.7555 60.2185 62.2861 59.1984 62.648 58.1186C63.1005 56.7654 63.6764 55.4573 64.1576 54.1184C64.186 53.933 64.186 53.7444 64.1576 53.559C63.2363 52.6459 62.718 51.5702 63.1992 50.1799C64.2543 49.2832 65.5356 48.6518 66.7449 47.8991C66.9835 46.9571 67.1563 46.0069 67.4792 45.1082C67.6396 44.6495 67.6643 44.1621 67.8638 43.7282C68.0591 43.2539 68.2065 42.7613 68.3039 42.2576C68.4129 41.8011 68.5918 41.3568 68.7029 40.8838C68.9085 40.0611 69.2664 39.2652 69.4947 38.4405C69.7477 37.517 69.9945 36.5895 70.2865 35.6825C70.7986 34.0762 71.2429 32.4474 71.7262 30.8349C72.1128 29.5557 72.4378 28.2476 72.8121 26.9602C73.0774 26.0429 73.3201 25.1092 73.6204 24.2125C73.9206 23.3158 74.1345 22.3615 74.3937 21.4524C74.5111 20.9287 74.4891 20.3834 74.3299 19.8708C74.079 18.9248 74.1242 17.9602 74.9243 17.2651C75.2842 17.1581 75.64 17.3926 75.9382 17.0902C75.9922 17.0488 76.056 17.022 76.1234 17.0127C76.1909 17.0033 76.2596 17.0116 76.3228 17.0368C76.7856 17.3617 77.2997 17.2239 77.7872 17.2219C78.1452 17.2366 78.4989 17.306 78.8361 17.4275C79.1754 17.5283 79.525 17.3987 79.9035 17.5941C80.2428 17.7689 80.7261 17.771 81.1375 17.8162C82.0486 17.9191 82.8836 18.2522 83.7556 18.4661C85.0807 18.8022 86.3855 19.2142 87.6633 19.7001C88.6052 20.0457 89.5389 20.4117 90.2855 21.2447C90.2855 21.6252 90.2855 22.0674 90.2855 22.5034C90.2629 23.4762 90.6393 24.4202 90.4912 25.4012C90.7812 25.8907 90.6043 26.4522 90.7174 26.9561C90.8305 27.4599 90.8552 27.9988 90.9231 28.5171C90.9909 29.0353 91.0218 29.5762 91.1411 30.0719C91.2665 30.6005 91.2007 31.1393 91.3324 31.635C91.5524 32.4576 91.538 33.3255 91.7437 34.1379C92.0234 35.2095 92.1077 36.3139 92.2887 37.3916C92.4553 38.3849 92.7371 39.3721 92.7946 40.3984C92.8173 40.7954 92.8255 41.2848 93.0003 41.6324C93.206 42.0561 93.0003 42.5476 93.2451 42.8664C93.5453 43.2531 93.1278 43.7796 93.5865 44.0716C93.5433 44.5056 93.6996 44.9087 93.7716 45.3262C93.9238 46.2167 94.2096 47.0826 94.3433 47.9608C94.4708 48.7999 94.7382 49.6061 94.8472 50.4452C94.9685 51.3872 95.3285 52.2962 95.5423 53.232C95.8035 54.3879 96.1984 55.4943 96.4843 56.6502C96.7917 57.7843 97.1611 58.9007 97.5908 59.9943C97.9322 60.9137 98.3435 61.8063 98.7302 62.7091C98.7895 62.8269 98.8583 62.9397 98.9358 63.0464C98.5677 63.6984 98.8454 64.4306 98.7034 65.1031C98.5615 65.7756 98.6047 66.4667 98.144 67.098C97.6114 67.2194 97.0807 67.6739 96.4555 67.2091C96.4329 67.1927 96.3876 67.2091 96.3547 67.2091C94.66 67.2749 93.1381 66.5654 91.5668 66.1067C90.4871 65.7921 89.4361 65.389 88.597 64.5889C87.906 64.4737 87.8175 63.8012 87.6571 63.3549C87.4527 62.7107 87.2933 62.053 87.18 61.3867C86.7912 59.4966 86.6473 57.5531 85.9686 55.7185C85.8246 55.3298 85.8431 54.8835 85.7403 54.4742C85.6583 54.2965 85.5471 54.1338 85.4112 53.993C84.496 54.3735 83.5499 54.3858 82.6429 54.6347C81.8429 54.8527 81.0429 55.0851 80.2387 55.299C78.9512 55.6424 77.6926 56.0949 76.4277 56.5186C75.5884 56.8078 74.7688 57.1513 73.9741 57.5469C73.7861 57.6501 73.6219 57.7916 73.4922 57.9624C73.3625 58.1332 73.2702 58.3294 73.2214 58.5382C72.8553 59.8257 72.2815 61.0309 71.8516 62.2916C71.4588 63.4639 71.0536 64.6362 70.5765 66.0265ZM81.6475 32.2972C81.4143 32.665 81.2081 33.0492 81.0305 33.4469C80.2613 35.7298 79.486 38.0106 78.7682 40.31C78.2684 41.9183 77.8468 43.5513 77.3285 45.1514C77.5054 45.6573 76.837 46.1118 77.1948 46.591C79.1404 46.0707 81.0326 45.4722 82.9782 45.1514C83.3237 45.0383 83.334 44.7586 83.2846 44.4809C83.2538 44.2958 83.1016 44.1272 83.0954 43.9482C83.0358 42.6381 82.4599 41.4165 82.4784 40.0981C82.1823 39.6457 82.427 39.0698 82.2398 38.6585C81.9108 37.9345 82.2995 37.1283 81.8614 36.4537C81.7915 35.2856 81.7229 34.1167 81.6557 32.9471C81.6496 32.7929 81.6496 32.6325 81.6496 32.2952L81.6475 32.2972Z" fill="white"/>
<path d="M15.8825 53.6454C14.6361 53.158 13.8114 52.3518 12.925 51.6422C12.6371 51.4119 12.3224 51.3173 11.9769 51.1137C11.9534 51.2368 11.9363 51.361 11.9255 51.4859C11.9255 54.3981 11.9152 57.3104 11.9255 60.2247C11.9255 60.6751 12.1023 61.1255 12.1085 61.578C12.1407 62.0299 12.2477 62.4733 12.4252 62.8901C12.6309 63.4948 12.6803 64.1385 12.9188 64.7411C13.0052 64.9612 12.7913 65.2902 12.742 65.5638C12.6412 66.1417 12.164 67.2502 11.7877 67.6328C11.6094 67.7777 11.4147 67.9013 11.2077 68.0009C9.99836 68.2621 8.91039 67.7212 7.83475 67.3119C6.51152 66.7796 5.21744 66.1776 3.95794 65.5082C3.33413 65.1744 2.74269 64.7834 2.19126 64.3401C1.88688 64.1056 1.68121 63.7457 1.43647 63.4475C1.4634 63.0309 1.45928 62.6129 1.42413 62.197C1.36367 61.7018 1.45474 61.1998 1.68532 60.7574C1.89099 60.3604 1.72646 59.9162 2.02879 59.5501C2.16453 59.3876 2.05347 59.0215 2.05347 58.7459C2.05347 47.0298 2.05347 35.3116 2.05347 23.5914C2.05347 22.5754 1.66681 21.7095 1.2308 20.7573C1.02514 19.9572 1.4632 19.1736 1.69766 18.2893L2.48742 17.4995C3.80163 17.1684 4.92869 17.8018 6.11127 18.1165C6.78997 18.2996 7.45838 18.569 8.14737 18.6471C8.95975 18.7397 9.81738 18.8034 10.6051 18.6471C11.7675 18.4201 12.9068 18.0876 14.0089 17.6538C14.6317 17.4149 15.2668 17.2089 15.9113 17.0368C16.2525 16.9365 16.6023 16.8676 16.9561 16.8311C17.2954 16.7982 17.6409 16.8455 17.9844 16.8188C18.8749 16.7488 19.6297 17.1231 20.3516 17.5571C20.8 17.8265 21.1537 18.2502 21.5856 18.5566C22.581 19.26 23.3338 20.2554 24.4464 20.819C26.0692 21.6519 27.4307 22.9166 28.3808 24.4737C29.2549 25.8701 29.5696 27.2748 29.8349 28.3998C30.1845 29.8827 30.0406 31.3697 29.9809 32.8422C29.9418 33.9508 29.5696 35.0511 29.3187 36.1494C28.9217 37.7201 28.3869 39.2528 27.7206 40.7295C26.9473 42.5003 26.2666 44.339 25.0922 45.9144C24.7652 46.9818 23.9857 47.786 23.4304 48.7197C23.161 49.1297 22.8663 49.5226 22.5481 49.8961C22.2595 50.3003 21.9412 50.6826 21.5959 51.0396C20.6126 51.9917 19.4828 52.7798 18.2497 53.3739C18.1947 53.4063 18.1325 53.4247 18.0687 53.4274C17.754 53.3698 17.5031 53.5878 17.2255 53.6207C16.7787 53.6561 16.3302 53.6643 15.8825 53.6454ZM11.9275 44.302C12.2892 44.1612 12.6434 44.0019 12.9888 43.8248C13.8423 43.3251 14.4696 42.562 15.1483 41.8648C15.4884 41.5099 15.784 41.1149 16.0285 40.6884C16.5118 39.8657 16.9561 39.0225 17.3982 38.1772C18.198 36.6727 18.8728 35.1051 19.4158 33.4901C19.7527 32.5533 20.0114 31.5903 20.1891 30.6108C20.292 29.9526 20.438 29.2801 20.5367 28.6158C20.6478 27.8836 20.5635 27.1206 20.5635 26.3781L19.8992 25.4835C19.4035 25.4835 18.9428 25.3601 18.5973 25.5061C17.489 25.9742 16.407 26.5022 15.356 27.0877C14.2104 27.7294 13.2993 28.6795 12.3964 29.6133C12.2364 29.7752 12.1115 29.9683 12.0294 30.1806C11.9473 30.3929 11.9098 30.6198 11.9193 30.8473C11.9275 35.265 11.9275 39.6745 11.9275 44.302Z" fill="white"/>
<path d="M130.763 26.2918C129.833 27.4476 129.323 28.7433 128.57 29.8991C127.966 30.8185 127.583 31.8838 127.098 32.8813C126.736 33.6238 126.318 34.3415 126.012 35.1046C125.516 36.3386 124.881 37.5129 124.367 38.7387C123.976 39.6662 123.532 40.5897 123.116 41.5131C122.415 43.07 121.676 44.6187 121.136 46.2435C120.955 46.7844 120.685 47.2965 120.455 47.8106C119.764 49.3429 119.194 50.9244 118.544 52.471C117.87 54.0752 117.397 55.7617 116.817 57.407C116.594 58.0364 116.418 58.6801 116.226 59.3177C116.021 59.9964 116.317 60.6977 116.467 61.3743C116.539 61.5858 116.589 61.8044 116.615 62.0263C116.651 62.7451 116.647 63.4654 116.603 64.1838C116.465 65.4568 116.177 66.6908 115.11 67.5834C113.647 67.859 112.284 67.3305 110.908 66.9479C109.962 66.6847 109.057 66.3001 108.119 65.9895C106.936 65.5946 105.826 65.099 104.976 64.1385C104.595 63.7005 104.306 63.1898 104.127 62.6371C103.921 61.9831 104.232 61.3723 104.462 60.7656C104.822 59.8175 105.159 58.8611 105.511 57.9089C105.885 56.899 106.27 55.8933 106.644 54.8835C106.955 54.0608 107.261 53.2197 107.568 52.3867C107.699 52.0309 107.839 51.6772 108 51.2535C107.434 50.1059 106.84 48.9151 106.26 47.716C105.437 46.0049 104.575 44.302 103.792 42.5744C103.362 41.618 102.846 40.7028 102.434 39.7444C101.801 38.2574 101.034 36.8239 100.46 35.3185C99.7503 33.4531 98.9133 31.6432 98.2592 29.749C97.7225 28.1921 97.1733 26.6352 96.6509 25.0722C96.5682 24.7939 96.416 24.5412 96.2088 24.3379C95.8996 24.1029 95.664 23.7845 95.5296 23.4202C95.3952 23.0559 95.3675 22.6608 95.4498 22.2813C95.7049 21.9522 95.9188 21.5573 96.2375 21.2879C97.7811 19.9768 99.4147 18.7755 101.126 17.6928C101.75 17.3122 102.418 17.0084 103.115 16.7879C103.703 16.5966 104.242 16.7529 104.738 16.6254C105.791 17.1807 106.412 18.0363 106.813 19.0749C106.858 19.1942 106.947 19.3197 106.934 19.4328C106.817 20.4138 107.064 21.3681 107.163 22.3286C107.266 23.1636 107.418 23.9919 107.619 24.8089C107.773 25.4938 107.987 26.1622 108.176 26.8388C108.244 27.0856 108.308 27.3324 108.382 27.5772C108.588 28.2456 108.793 28.9181 108.999 29.5824C109.205 30.281 109.45 30.9676 109.731 31.6391C110.099 32.4474 110.371 33.2947 110.704 34.1071C111.037 34.9195 111.473 35.629 111.714 36.4681C111.92 37.2168 112.426 37.8811 112.841 38.6647C112.942 38.4737 113.03 38.2765 113.106 38.0744C113.281 37.4965 113.608 36.9864 113.816 36.4147C114.363 34.8968 115.087 33.4469 115.624 31.9188C115.916 31.0961 116.393 30.3208 116.767 29.5145C117.205 28.5664 117.534 27.5566 118.065 26.664C118.867 25.3169 119.494 23.8772 120.389 22.5815C120.796 22.0032 121.172 21.4039 121.516 20.7861C121.843 20.1835 121.962 19.4657 122.156 18.7932C122.222 18.5282 122.344 18.2807 122.515 18.0677C122.686 17.8547 122.901 17.6812 123.145 17.5592C123.672 17.2667 124.255 17.0901 124.856 17.0412C125.457 16.9922 126.061 17.0721 126.629 17.2753C127.498 17.5895 128.322 18.0176 129.078 18.5484C129.834 18.9976 130.565 19.4849 131.271 20.0086C131.906 20.5187 132.414 21.1439 133.06 21.6272C133.06 22.3286 133.105 23.0155 133.048 23.6839C132.968 24.6197 132.593 25.4177 131.694 25.8599C131.357 26.0367 131.01 26.1786 130.763 26.2918Z" fill="white"/>
<path d="M195.999 7.75709C195.88 8.19516 196.022 8.7155 195.89 9.26668C195.674 10.1634 195.251 10.9346 194.821 11.71C194.391 12.4854 193.852 13.2258 193.381 13.9929C192.353 15.665 191.174 17.2342 190.226 18.9556C189.815 19.7187 189.147 20.3542 188.743 21.1234C187.962 22.6062 186.843 23.8649 186.084 25.3663C185.621 26.2815 184.91 27.0692 184.369 27.9494C183.596 29.2081 182.705 30.3886 181.996 31.6926C181.488 32.6242 180.774 33.4428 180.227 34.3662C179.351 35.8285 178.289 37.1695 177.477 38.6749C177.097 39.3824 176.566 40.0077 176.153 40.6987C175.26 42.1877 174.178 43.5513 173.355 45.0897C172.856 46.0255 172.121 46.8358 171.576 47.751C170.834 48.985 169.95 50.1388 169.248 51.4098C168.753 52.3106 168.136 53.1436 167.566 54.0053C166.694 55.3236 165.824 56.644 164.942 57.9562C164.135 59.1511 163.017 59.8874 161.565 59.7907C160.314 59.7064 159.127 59.3074 158.521 58.0199C157.809 57.4276 157.881 56.5412 157.78 55.7576C157.71 55.2208 157.951 54.6285 158.206 54.1123C158.907 52.6541 159.658 51.2185 160.298 49.7336C160.765 48.6518 161.375 47.6379 161.811 46.5561C162.338 45.2563 163.045 44.0552 163.576 42.7636C164.02 41.6715 164.643 40.6658 165.09 39.586C165.637 38.2615 166.363 37.0255 166.904 35.7092C167.282 34.7961 167.817 33.959 168.148 33.0356C168.697 31.5075 169.623 30.1562 170.149 28.6199C170.445 27.7561 170.972 26.9746 171.363 26.1519C172 24.8398 172.666 23.5379 173.24 22.199C173.652 21.2324 174.199 20.3295 174.585 19.3629C175.095 18.0939 175.78 16.9113 176.303 15.6609C176.767 14.5441 177.424 13.5137 177.866 12.401C178.374 11.128 179.052 9.94744 179.587 8.69904C180.036 7.65014 180.562 6.64238 181.027 5.59554C181.381 4.80989 181.699 4.01602 182.209 3.30441C183.137 2.01077 184.367 1.11201 185.784 0.441533C186.07 0.30785 186.401 0.340756 186.722 0.235867C187.32 0.0479 187.947 -0.02878 188.573 0.00963335C190.029 0.0457659 191.446 0.491231 192.661 1.29505C194.113 2.28019 195.168 3.55738 195.635 5.28909C195.66 5.37753 195.792 5.46597 195.777 5.53178C195.697 5.88758 195.983 6.14878 195.983 6.47785C195.999 6.8501 195.999 7.26349 195.999 7.75709Z" fill="white"/>
<path d="M44.4573 56.1669C47.2399 55.0131 49.9773 53.921 52.5482 52.4114C55.518 53.6187 57.951 55.6177 60.2319 57.7772C60.3678 58.6771 60.1576 59.595 59.6437 60.346C59.1768 61.035 58.7058 61.6705 57.84 61.9543C57.4945 62.0674 57.0749 62.16 56.8857 62.0345C56.5175 61.7774 56.172 61.9276 55.9067 61.872C55.1499 62.234 54.4897 62.6947 53.7657 62.8531C53.087 62.9991 52.5934 63.5523 51.888 63.5482C50.2982 64.2619 48.7146 64.9879 47.0754 65.5884C46.7504 65.7077 46.5222 66.1273 46.2774 66.4296C46.0327 66.732 45.8661 67.1268 45.5781 67.3613C45.1277 67.7233 44.6033 68.0235 43.9801 67.6965C43.9287 67.6609 43.8694 67.6384 43.8074 67.6307C42.4438 67.6883 41.1933 67.1906 39.9388 66.7854C38.6842 66.3803 37.4317 66.043 36.3046 65.3684C36.1977 65.3046 36.064 65.2841 35.9571 65.2182C35.7339 65.087 35.5196 64.9413 35.3154 64.7822C34.4927 64.1138 34.0382 63.2418 34.1493 62.1867C34.5153 58.6904 34.2973 55.1817 34.3344 51.6792C34.3734 48.115 34.3446 44.5508 34.3446 40.9846V19.7845L33.522 18.7129V18.1823C34.1719 17.3144 35.0501 16.7961 36.3437 16.6953C36.4314 16.7717 36.5442 16.8127 36.6604 16.8105C37.6682 16.7303 38.6204 17.0285 39.5727 17.2527C40.6833 17.5139 41.7651 17.9026 42.8489 18.2687C43.2735 18.4031 43.677 18.5962 44.048 18.8425C44.6197 19.2538 45.1401 19.7228 45.644 20.1361V21.3701L44.447 23.4618L44.4573 56.1669Z" fill="white"/>
<path d="M0.917273 81.8217L0 81.1471V79.9316L0.261196 79.4072C0.442627 79.3089 0.630168 79.2223 0.822666 79.148C0.958812 79.125 1.09785 79.125 1.234 79.148C8.81692 79.2941 16.3937 78.9177 23.9745 78.9239C73.569 78.9582 123.163 78.9643 172.758 78.9424C173.184 78.9424 173.599 78.9239 174.017 79.1316C174.434 79.3393 174.786 79.6355 174.812 80.0818C174.833 80.4211 174.812 80.7646 174.812 81.0751C174.335 81.7394 173.681 81.8299 172.943 81.8299C120.292 81.819 67.6478 81.819 15.0095 81.8299L0.917273 81.8217Z" fill="white"/>
<path d="M154.823 44.1847H153.155C152.067 43.9277 151.586 43.2181 151.164 42.3564V40.7912C151.666 40.4005 151.076 39.7074 151.575 39.3166C151.575 38.8559 151.495 38.3808 151.781 37.9613C151.748 36.8322 152.096 35.7483 152.24 34.6418C152.336 33.646 152.514 32.6596 152.77 31.6926C152.91 31.2195 152.904 30.6642 153.013 30.1439C153.18 29.35 153.151 28.5274 153.406 27.7376C153.533 27.3468 153.326 26.8717 153.632 26.4933C153.474 25.8763 153.768 25.3087 153.867 24.7328C154.043 23.7045 154.091 22.6761 154.416 21.6787C154.498 21.4319 154.416 21.1378 154.461 20.8704C154.506 20.603 154.621 20.383 154.654 20.132C154.739 19.476 154.708 18.7932 154.887 18.1679C155.162 17.1992 155.063 16.1627 155.483 15.229C155.337 14.612 155.621 14.0484 155.715 13.4685C155.818 12.8391 155.831 12.1913 156.069 11.566C156.234 11.1321 156.24 10.5891 156.265 10.1264C156.324 8.99932 156.598 7.90929 156.762 6.80897C156.875 5.88341 157.057 4.96766 157.307 4.06949C157.578 3.18089 158.131 2.40474 158.883 1.85858C159.433 1.41707 160.072 1.10056 160.756 0.931021C161.659 0.741808 163.072 0.766488 163.948 1.11818C164.819 1.43912 165.58 2.00037 166.145 2.73677C166.605 3.31862 166.911 4.00676 167.035 4.73791C167.109 5.2603 167.299 5.79709 167.183 6.29892C166.992 7.13598 166.786 7.97304 166.517 8.79365C166.134 9.87614 165.809 10.9788 165.546 12.0967C165.423 12.6807 165.123 13.2237 164.948 13.7996C164.588 14.9883 164.316 16.21 163.897 17.3761C163.467 18.5752 163.138 19.803 162.753 21.0123C162.254 22.5877 161.752 24.1672 161.314 25.757C161.092 26.555 160.851 27.3571 160.602 28.1448C160.353 28.9325 160.109 29.7264 159.872 30.5059C159.607 31.3902 159.255 32.252 159.049 33.1466C158.844 34.0413 158.457 34.901 158.237 35.7956C157.924 37.0666 157.499 38.3027 157.135 39.5572C156.867 40.4725 156.631 41.4082 156.298 42.2947C156.069 42.9117 155.886 43.6027 155.117 43.8536C154.971 43.8906 154.889 44.0943 154.823 44.1847Z" fill="white"/>
<path d="M141.53 58.1701H140.265C139.428 57.8492 138.77 57.444 138.461 56.6584C138.4 56.2779 138.338 55.8954 138.256 55.375C138.337 55.2266 138.386 55.0626 138.4 54.8938C138.266 51.7306 138.725 48.5839 138.628 45.4208C138.607 44.7668 138.78 44.1086 138.813 43.4505C138.848 42.7327 138.813 42.0108 138.813 41.2931C138.813 40.6082 138.696 39.8986 138.834 39.2364C139.187 37.552 138.834 35.8511 139.039 34.1811C139.282 32.1861 139.039 30.1768 139.268 28.2065C139.473 26.409 139.237 24.6135 139.459 22.8448C139.646 21.3599 139.498 19.8729 139.664 18.4085C139.835 16.8989 140.631 15.6917 141.879 14.7559C143.128 13.8201 144.493 13.9517 145.874 13.9517C147.194 14.4947 148.461 15.0582 149.131 16.4938C149.473 17.2198 149.763 17.8903 149.748 18.717C149.745 19.8049 149.607 20.8881 149.337 21.9419C149.216 22.3697 149.306 22.8407 149.131 23.2972C148.985 23.7629 148.912 24.2487 148.915 24.7369C148.868 25.223 148.782 25.7045 148.656 26.1766C148.467 27.0856 148.492 28.0481 148.082 28.9099C148.235 29.5269 147.949 30.0945 147.848 30.6704C147.677 31.6494 147.615 32.651 147.293 33.6155C147.147 34.0515 147.161 34.578 147.066 35.0552C146.883 36.0177 146.871 37.0193 146.616 37.9571C146.353 38.9299 146.347 39.9377 146.046 40.9023C145.863 41.4884 145.898 42.1363 145.814 42.7533C145.779 43.0042 145.666 43.2428 145.608 43.4916C145.594 43.7515 145.539 44.0076 145.446 44.2505C145.24 44.6393 145.4 45.1267 145.226 45.5935C145.02 46.1632 145.065 46.8275 144.981 47.4445C144.946 47.6955 144.839 47.934 144.775 48.1829C144.711 48.4317 144.775 48.6765 144.637 48.9521C144.413 49.3634 144.697 49.9413 144.362 50.3753C144.391 51.4365 144.082 52.4608 143.905 53.487C143.751 54.394 143.605 55.3216 143.368 56.2286C143.142 57.0985 142.636 57.5654 141.914 57.9294L141.53 58.1701Z" fill="white"/>
<path d="M2.29382 90.0587H4.28673L15.0719 105.946L25.8426 90.0587H27.9322V116.917L27.6587 117.176H26.0133L25.709 116.89V93.8347C24.8328 95.0831 24.0636 96.1937 23.2759 97.2981C22.3196 98.6473 21.4846 100.077 20.4542 101.379C19.8125 102.185 19.2778 103.077 18.7142 103.943C18.2721 104.624 17.7743 105.266 17.328 105.94C16.8817 106.615 16.4828 107.324 15.948 107.941C15.6241 108.373 15.33 108.825 15.0678 109.297C14.8086 108.931 14.603 108.661 14.3973 108.384C13.3258 106.88 12.3612 105.299 11.2362 103.832C10.6069 103.009 10.0721 102.121 9.48187 101.272C8.53786 99.9142 7.69257 98.491 6.66012 97.1912C6.02256 96.387 5.50839 95.48 4.93458 94.6224C4.77827 94.3879 4.60963 94.1617 4.31758 93.7586V116.962H2.29382V90.0587Z" fill="white"/>
<path d="M149.961 90.0587H152.032L170.414 113.239C170.389 113.239 170.414 113.239 170.437 113.239C170.459 113.239 170.49 113.188 170.49 113.161C170.49 105.488 170.49 97.8143 170.49 90.0936H172.52V117.143H170.953L151.986 93.2095V117.168H149.958L149.961 90.0587Z" fill="white"/>
<path d="M88.8801 90.0484H89.9228C93.7585 90.0484 97.5942 90.0587 101.44 90.0484C103.256 90.0562 105.035 90.5642 106.582 91.5168C108.328 92.5452 109.426 94.1267 109.858 96.1649C109.98 96.6775 110.037 97.2032 110.029 97.73C110.006 98.2524 110.191 98.8077 109.823 99.289C109.77 100.714 109.052 101.8 108.098 102.785C107.209 103.746 106.091 104.465 104.848 104.875C103.99 105.15 103.162 105.492 102.102 105.482L110.829 116.779V117.165H108.423L99.7496 105.895H90.9059V117.168H88.8781L88.8801 90.0484ZM90.9039 91.8994V104.034H94.3488C95.5828 104.034 96.8168 104.054 98.0508 104.034C99.2848 104.013 100.459 104.11 101.671 103.867C102.466 103.707 103.279 103.696 103.978 103.219C104.605 103.304 104.99 102.808 105.432 102.528C105.936 102.232 106.372 101.834 106.713 101.36C107.125 100.764 107.516 100.177 107.672 99.4885C107.828 98.7995 108.139 98.0714 107.95 97.3578C107.847 96.9986 107.787 96.6286 107.771 96.2554C107.526 95.7227 107.335 95.3217 107.154 94.9165C106.919 94.3958 106.544 93.9503 106.072 93.629C105.313 93.0957 104.482 92.6733 103.604 92.3745C102.875 92.1175 102.113 91.9698 101.341 91.9364C97.8862 91.8541 94.429 91.8994 90.9059 91.8994H90.9039Z" fill="white"/>
<path d="M57.4151 89.8427H59.3771C59.5247 90.0325 59.6484 90.2397 59.7453 90.4597C60.0106 91.3173 60.5124 92.0639 60.8641 92.8763C61.6868 94.7684 62.5896 96.6174 63.439 98.493C63.8504 99.4206 64.3872 100.301 64.7389 101.243C65.107 102.23 65.6212 103.139 66.0263 104.102C66.4315 105.064 67.0074 105.953 67.3611 106.942C67.6326 107.695 68.011 108.381 68.3421 109.105C69.2429 111.063 70.1335 113.025 71.061 114.973C71.3839 115.65 71.7295 116.339 72.0462 117.151C71.6349 117.163 71.2708 117.176 70.9109 117.18C70.551 117.184 70.1643 117.18 69.7736 117.18L66.3163 109.595H50.4039C50.1365 110.095 49.7581 110.603 49.5936 111.172C49.4708 111.534 49.3223 111.885 49.1493 112.225C48.4638 113.76 47.7782 115.291 47.0927 116.82C47.0185 116.94 46.9316 117.052 46.8335 117.153H44.818C44.9191 116.797 45.0449 116.448 45.1944 116.108C45.9471 114.669 46.5435 113.169 47.251 111.717C47.7405 110.728 48.2526 109.731 48.6413 108.698C49.03 107.666 49.61 106.701 50.0543 105.685C50.7988 103.97 51.6297 102.292 52.4071 100.593C53.2647 98.7213 54.1162 96.8457 54.9882 94.9803C55.7265 93.4028 56.4402 91.813 57.1662 90.2294C57.2279 90.1204 57.3081 90.0155 57.4151 89.8427ZM58.3035 92.1976C57.9231 93.0676 57.6084 93.8265 57.2649 94.573C56.3497 96.5557 55.4139 98.528 54.5008 100.513C53.8673 101.893 53.2668 103.289 52.6498 104.671C52.2384 105.589 51.7901 106.493 51.3479 107.427C52.5819 107.584 64.6689 107.559 65.3559 107.417C65.0206 106.64 64.6319 105.881 64.274 105.103C63.4822 103.378 62.7028 101.646 61.9109 99.9204C61.2117 98.3984 60.5391 96.8621 59.8543 95.334C59.6322 94.8445 59.3401 94.4023 59.2044 93.8532C59.0686 93.3041 58.6635 92.8393 58.3035 92.1935V92.1976Z" fill="white"/>
<path d="M154.33 62.0777C156.479 61.907 158.118 62.9765 159.433 64.5313C160.309 65.5597 160.897 66.8163 160.829 68.2621C160.796 68.9902 160.885 69.7182 160.64 70.4442C160.451 71.0037 159.817 72.4372 159.437 72.8259C158.641 73.6177 157.896 74.4712 156.788 74.8722C156.364 75.0265 155.965 75.2486 155.5 75.2404C155.072 75.2404 154.706 75.4851 154.248 75.4625C152.382 75.3658 150.778 74.7776 149.423 73.4264C148.067 72.0752 147.492 70.5101 147.463 68.6693C147.427 67.6802 147.626 66.6965 148.043 65.7987C148.459 64.9009 149.082 64.1143 149.861 63.503C150.947 62.6125 152.201 62.0016 153.68 62.0633C153.884 62.0777 154.089 62.0777 154.33 62.0777Z" fill="white"/>
<path d="M139.693 69.8787C138.342 69.9753 137.252 69.3974 136.415 68.548C135.992 68.144 135.658 67.6566 135.433 67.1167C135.209 66.5768 135.099 65.9962 135.111 65.4116C135.156 64.0172 135.709 62.923 136.729 61.9687C137.591 61.1708 138.619 61.0371 139.648 60.8438C142.241 61.0741 143.913 62.7379 144.172 65.3334C144.205 65.679 143.761 67.3222 143.555 67.639C143.154 68.2997 142.601 68.8547 141.941 69.2576C141.244 69.6566 140.497 70.0165 139.693 69.8787Z" fill="white"/>
<path d="M146.845 50.1326L147.382 49.0879C147.628 48.5841 147.976 48.137 148.404 47.7751C148.832 47.4132 149.331 47.1445 149.868 46.9859C150.691 46.733 151.479 46.8831 152.277 46.8811C152.659 46.9076 153.028 47.0346 153.346 47.2492C153.966 47.588 154.501 48.0618 154.913 48.6354C155.409 49.3861 155.796 50.147 155.697 51.091C155.672 51.5199 155.672 51.9497 155.697 52.3785C155.302 53.3308 154.843 54.0732 154.156 54.6676C153.485 55.2877 152.616 55.6517 151.703 55.6959C151.532 55.6836 151.36 55.6836 151.189 55.6959C150.317 55.8543 149.558 55.5088 148.889 55.0542C148.187 54.6012 147.619 53.9685 147.244 53.2218C146.961 52.7053 146.822 52.1219 146.843 51.5332C146.868 51.0581 146.845 50.5769 146.845 50.1326Z" fill="white"/>
<path d="M128.368 90.0587H130.353V117.168H128.368V90.0587Z" fill="white"/>
</svg>
